PathFileType	4	(X/Y/Z)	OpenSim_Sub01_EMGStiffKnee_Accel.trc
DataRate	CameraRate	NumFrames	NumMarkers	Units	OrigDataRate	OrigDataStartFrame	OrigNumFrames
100	100	41	8	m	100	1392	5567
Frame#	Time	torso_imu_offset_imu	pelvis_imu_offset_imu	tibia_r_imu_offset_imu	femur_r_imu_offset_imu	tibia_l_imu_offset_imu	femur_l_imu_offset_imu	toes_r_imu_offset_imu	toes_l_imu_offset_imu
				X1	Y1	Z1	X2	Y2	Z2	X3	Y3	Z3	X4	Y4	Z4	X5	Y5	Z5	X6	Y6	Z6	X7	Y7	Z7	X8		Y8	Z8	

1392	13.91000000	8.46250323	0.23928750	5.94998335	9.41899651	-0.85371194	1.74371075	11.03728778	4.81355750	1.31920132	7.57363597	1.05284626	2.42258721	9.24353110	-2.44102924	-0.60808483	9.05460363	0.83731178	-1.82404457	11.75967999	-2.88629398	9.18888885	5.91959843	1.54522472	10.45635520
1393	13.92000000	8.37879735	0.27002138	5.90139006	9.27937567	-0.72112566	1.79847485	11.13530143	4.98678703	1.49046521	7.67279556	0.55038942	2.40869992	9.24770891	-2.64073978	-0.72071990	8.99748148	0.78074635	-1.65494561	12.11764246	-3.39244810	8.47321330	5.95685528	1.65389757	10.40690817
1394	13.93000000	8.34490956	0.33217423	5.84717908	9.09386576	-0.61615530	1.86048889	10.95916526	4.77258874	1.45361117	7.75715860	-0.03238850	2.28744077	9.26469172	-3.12400586	-0.71789344	9.13928983	0.71150483	-1.62166172	13.11187185	-3.52620763	8.04699573	5.94636629	1.64295316	10.40362535
1395	13.94000000	8.33253468	0.39975716	5.79672265	8.89161052	-0.55628865	1.86962113	10.57790466	4.49584013	1.42946863	7.82511787	-0.73462069	2.09907902	9.30817925	-3.61141377	-0.62193666	9.35461204	0.64920976	-1.64677878	15.01923242	-3.53135396	8.23729059	5.92383604	1.52512054	10.42646348
1396	13.95000000	8.32835033	0.45264548	5.75937882	8.70831369	-0.54935076	1.79131945	10.09653195	4.39773748	1.50824232	7.88671081	-1.59462585	1.85927050	9.38513822	-3.87219102	-0.45887279	9.53364942	0.60836793	-1.66180372	17.70171775	-3.56766620	9.01617042	5.91875513	1.32656150	10.45567637
1397	13.96000000	8.36574319	0.48957384	5.74507809	8.59800869	-0.57474654	1.66912570	9.72542454	4.44643563	1.37542029	7.98383966	-2.64539863	1.50686133	9.48076650	-3.83772656	-0.26074296	9.62320586	0.58768655	-1.63362151	19.78984504	-3.52384828	9.29558900	5.93797073	1.10997992	10.47482290
1398	13.97000000	8.48362425	0.51303730	5.76319580	8.61261689	-0.60623291	1.55976381	9.67592029	4.55148273	0.68801733	8.15780925	-3.90631489	0.97872604	9.57717581	-3.47811052	-0.06164552	9.58683875	0.58302467	-1.53819282	19.81911580	-3.22920754	7.87749702	5.98262863	0.94372102	10.46958738
1399	13.98000000	8.67434682	0.52962509	5.81321725	8.72174945	-0.61167754	1.50115941	9.88224433	4.50084578	-0.20337919	8.35283437	-5.20770085	0.39472634	9.67052178	-2.89391054	0.09018704	9.48220049	0.59133331	-1.38940739	18.31009854	-2.37421070	4.85060880	6.03120641	0.87945051	10.44831342
1400	13.99000000	8.89442651	0.54907745	5.88700918	8.83168207	-0.55443597	1.51674640	10.06534210	3.98904630	-0.41464355	8.43845451	-6.23443980	0.01551566	9.76776187	-2.28611455	0.13566320	9.43932743	0.61040984	-1.23035714	17.31086763	-0.54277182	1.29398657	6.04475176	0.95595769	10.43677650
1401	14.00000000	9.10275358	0.58024758	5.96932668	8.88302850	-0.42615597	1.60202240	9.99678628	2.90458376	0.45424868	8.36840715	-6.78413670	0.00957347	9.86394725	-1.82968352	0.04383933	9.52294488	0.64575852	-1.11060159	18.10912031	2.24978906	-1.96020549	6.01054498	1.16336830	10.44616157
1402	14.01000000	9.26801357	0.62911212	6.02437558	8.92327625	-0.30289830	1.67058226	9.61488655	1.71949031	1.32407167	8.35232509	-7.00045724	0.26073014	9.91792482	-1.61456573	-0.13175888	9.59817882	0.72571937	-1.09668624	19.61639755	4.69811868	-4.88913878	5.99514686	1.34819222	10.44296656
1403	14.02000000	9.36277889	0.70014800	6.01660696	9.01649319	-0.27021297	1.62448868	8.90616005	0.99372981	0.93549660	8.61929955	-7.08591804	0.59992296	9.88725892	-1.70496057	-0.32405576	9.50536118	0.88155678	-1.25131564	20.38985718	5.38154334	-7.61715345	6.07224032	1.34505554	10.38984194
1404	14.03000000	9.39068343	0.78335011	5.97098990	9.17918089	-0.32211481	1.41982670	8.11718579	0.98868706	-0.57345023	8.98166215	-7.16627032	0.85411101	9.81047927	-2.01496887	-0.49690553	9.26600733	1.12511926	-1.53273238	20.25748543	4.72263019	-10.23170578	6.20275260	1.20806964	10.31549166
1405	14.04000000	9.37928864	0.85756587	5.95905319	9.39124388	-0.38216329	1.05433371	7.69460347	1.73570756	-1.98928542	8.93118601	-7.30805771	0.84724765	9.78842168	-2.34320918	-0.63797464	9.04109079	1.45327037	-1.81878334	20.02511817	4.56208288	-12.79134732	6.26085281	1.16023019	10.29944485
1406	14.05000000	9.37854547	0.90248209	6.01743533	9.65774965	-0.38343371	0.61416115	7.91048006	3.00465397	-2.37560760	8.30146211	-7.42572874	0.47846926	9.89532659	-2.57009129	-0.73861121	8.97231925	1.81129708	-2.01097507	19.94441542	5.72361072	-14.67514401	6.17330289	1.32820517	10.39206074
1407	14.06000000	9.50310453	0.90113178	6.07554228	10.06133267	-0.29266232	0.44499223	8.50286165	3.80599642	-1.70154567	7.96626835	-6.98631888	-0.12945773	10.12164597	-2.82788822	-0.79928298	9.13349397	1.99237588	-2.08726187	18.54560497	5.90060834	-13.24533284	6.02977173	1.53952357	10.55313775
1408	14.07000000	9.87389197	0.83559919	6.05312817	10.69009887	-0.08266606	0.91030495	9.15573818	3.07700932	-0.12667849	8.91237968	-5.43165653	-0.80465765	10.44526876	-3.27945495	-0.81861538	9.57920077	1.78299397	-2.04568459	14.26901691	2.45927582	-5.82012810	5.94318987	1.57911063	10.72783346
1409	14.08000000	10.52674780	0.66451524	6.02217758	11.49944059	0.27587261	1.92186625	10.22158585	0.76054232	1.84479831	10.93974601	-3.06413087	-1.25909022	10.88789727	-3.84848323	-0.74243859	10.26436362	1.29034811	-1.97335112	8.97205288	-3.47021694	5.36156732	5.92388168	1.42195761	10.89276520
1410	14.09000000	11.43196120	0.32850815	6.17176163	12.34259865	0.81386134	3.04377252	12.56685269	-2.42624544	3.44351053	12.93489150	-0.84852540	-1.11553314	11.50491028	-4.27458792	-0.47599306	11.06718776	0.86841039	-2.02587549	7.14087932	-7.86125163	14.27450177	5.90320391	1.18936439	11.04876157
1411	14.10000000	12.48997181	-0.16365167	6.56026661	13.08567338	1.49183954	3.90752363	16.23490094	-5.46011658	4.03674559	14.01892084	0.32236999	-0.31522035	12.28457402	-4.33432962	0.00724934	11.86548275	0.73476204	-2.28386440	11.06855681	-8.02334719	16.92859079	5.83546264	1.00030940	11.18869821
1412	14.11000000	13.39867728	-0.59933842	6.84880955	13.64078408	2.06113133	4.37147795	18.78407239	-6.46753083	3.41813904	14.07979439	-0.17968097	0.24752989	13.01316103	-3.92812042	0.52797008	12.54174653	0.68284727	-2.59980991	16.33057353	-5.45764042	15.67050022	5.74919186	0.95568979	11.27996859
1413	14.12000000	13.83822802	-0.74735911	6.65584044	13.93035100	2.24751078	4.34975723	17.53414251	-3.60836113	1.51378103	13.17864334	-2.81448926	-0.39925940	13.45157653	-2.99745224	0.87784727	12.98100568	0.44146964	-2.79330956	17.59435988	-2.38261676	13.87185653	5.68961513	1.14565160	11.28571070
1414	14.13000000	13.78353943	-0.66264966	6.06039818	13.90361892	1.97322411	3.96328266	13.10984235	2.10526220	-0.94778477	11.84630101	-6.25359101	-1.75293655	13.53995524	-1.75586783	0.98404132	13.09315317	-0.05444148	-2.82282295	14.52374783	-0.15464124	12.71061162	5.74633507	1.54949233	11.17588248
1415	14.14000000	13.43640983	-0.62034335	5.49597637	13.53052469	1.31181026	3.49213743	8.67935822	7.46624640	-2.62066193	10.97483522	-7.79266471	-2.17626451	13.35637389	-0.62626574	0.87801047	12.80727672	-0.71126097	-2.75370436	10.62804605	0.53394894	11.67619068	6.04310292	2.06119357	10.92573472
1416	14.15000000	12.96759278	-0.81464595	5.26250130	12.83784568	0.40432286	3.17724288	6.53935851	10.15440346	-2.64418611	11.01018742	-5.70025333	-0.78134584	12.94374699	0.05522779	0.59815824	12.12265346	-1.40524602	-2.65196512	8.50274323	-0.50670180	10.43789448	6.68532243	2.59310343	10.56746365
1417	14.16000000	12.43825295	-1.18246257	5.23592148	12.01967492	-0.41913374	3.13098840	6.20245489	10.65268588	-1.64670956	11.04505855	-1.24085457	1.00639079	12.22996365	0.22632590	0.19555358	11.24565580	-1.93529142	-2.57739831	7.73405366	-2.02411934	9.32857297	7.72126901	3.11866574	10.30206985
1418	14.17000000	11.88666281	-1.61530105	5.22087006	11.28925209	-0.81354121	3.43092132	6.70377383	9.93484869	-0.50620465	10.01383578	3.78279543	1.44632203	11.13756605	-0.12289986	-0.26601884	10.41233189	-2.09955708	-2.58075357	7.38725795	-2.58756100	8.77223548	9.18383423	3.60793240	10.34992424
1419	14.18000000	11.31172849	-2.03719367	5.12779251	10.68344197	-0.73371809	3.98882241	7.63572351	8.56383865	0.28354721	8.22569718	7.80239174	0.48121393	9.82729905	-0.97649621	-0.56754709	9.72985408	-1.89922467	-2.59466557	7.05784657	-2.08894978	8.72124889	11.03376241	3.81118497	10.75425060
1420	14.19000000	10.68208372	-2.39721673	4.94859393	10.10336891	-0.36528427	4.58889358	9.01956165	6.78638340	0.52462149	7.04778313	9.43063172	-0.65057099	8.64320484	-2.29855144	-0.37074618	9.20620592	-1.49175531	-2.46087583	6.74946352	-1.43819174	8.76501062	13.17591106	3.30976668	11.42205810
1421	14.20000000	10.00784290	-2.65396517	4.68404981	9.49088997	0.11826006	5.04996215	10.69251620	4.87008585	0.16731551	7.40411691	7.99705582	-1.04887302	7.83906847	-4.00665796	0.37222938	8.87347752	-1.02929744	-2.06118739	6.47218922	-1.29582681	8.61863830	15.05218882	2.00089162	12.46061712
1422	14.21000000	9.42469102	-2.79240344	4.35506705	8.91927155	0.59706889	5.30349366	11.91220580	3.16874847	-0.42025769	8.82116855	4.94741255	-0.91750483	7.38647264	-5.88177496	0.83709028	8.84297116	-0.63626795	-1.40339048	6.22403210	-1.50361329	8.39856112	14.73316002	0.73327216	14.58267009
1423	14.22000000	9.08268691	-2.80455242	3.98957196	8.48193638	0.96838394	5.30863052	11.89593180	2.03620759	-0.81341232	10.56683782	2.05036889	-0.65263501	7.18845442	-7.67357875	0.12646258	9.23093686	-0.42959696	-0.53612317	6.00150411	-1.76351387	8.28480536	10.26468382	0.47866177	18.48417231
1424	14.23000000	8.99958386	-2.71506923	3.66483003	8.21037230	1.23670083	5.12703754	10.86117310	1.58834176	-0.89682053	11.90626909	0.05208586	-0.47459411	6.90309665	-9.04164633	-1.33789736	10.00852315	-0.49090781	0.22930491	5.81212178	-1.95082930	8.29880163	3.11667391	1.41762848	22.93490308
1425	14.24000000	9.09128132	-2.57371713	3.49604996	8.08838036	1.48905205	4.89927015	9.79510655	1.75777928	-0.79329333	12.10280792	-1.08841857	-0.46830488	6.00020440	-9.57629965	-2.11919578	11.03511432	-0.87459095	0.37958163	5.67186913	-2.07429928	8.33991107	-2.60622109	3.12167042	25.22273744
1426	14.25000000	9.26476414	-2.40805318	3.54866460	8.08637806	1.77835575	4.72624453	9.38530785	2.37973432	-0.62444910	10.84747333	-1.45343917	-0.65245568	4.32761773	-9.00356708	-1.32736806	12.08119826	-1.56317956	-0.33502004	5.59181425	-2.14998460	8.32802959	-4.20326325	5.12840894	23.75173005
1427	14.26000000	9.40831337	-2.17773148	3.73730172	8.13865982	2.04985313	4.58506197	9.37027931	3.01396938	-0.49016023	9.10222001	-1.18786282	-0.85927448	2.87086903	-7.45801149	0.22550299	12.66165684	-2.32777010	-1.36556463	5.56777073	-2.20550063	8.25340080	-3.34671178	6.92135754	20.35584552
1428	14.27000000	9.41348400	-1.83691818	3.95254631	8.17571286	2.23192534	4.43434335	9.33469437	3.19339832	-0.47850048	8.00223202	-0.45546772	-0.89808024	2.74908803	-5.16210469	1.46250470	12.28630276	-2.90938305	-2.04622220	5.59189552	-2.26803067	8.12126594	-2.40580707	7.99577544	17.39608783
1429	14.28000000	9.27256183	-1.44551186	4.14242352	8.17098952	2.29855671	4.29871228	9.18702719	2.81121573	-0.56115999	7.75877476	0.47045439	-0.75123348	3.93307981	-2.52351798	2.05294251	11.09621288	-3.18393594	-2.17151297	5.64383165	-2.32632845	7.96666344	-2.08113997	8.17235751	15.63095447
1430	14.29000000	9.05535985	-1.14477007	4.29917491	8.13101589	2.25883775	4.25357298	9.08497231	2.03797480	-0.62026037	7.87199230	1.23239530	-0.53428246	5.50983291	-0.09239178	2.24053949	9.71830896	-3.13119966	-1.89034153	5.69358586	-2.33957564	7.84756088	-1.78890596	7.52237418	14.58541085
1431	14.30000000	8.81301192	-1.03282077	4.41478130	8.06200553	2.12372378	4.33792764	9.13677780	1.06970173	-0.56726585	7.97384057	1.58652776	-0.33966546	6.76392721	1.70725757	2.25391801	8.65466600	-2.74598406	-1.36857735	5.70688920	-2.28097439	7.81087204	-1.09049360	6.19592914	13.85953304
1432	14.31000000	8.53522257	-1.07341705	4.47706906	7.96671518	1.90702784	4.47873126	9.28471615	0.15691378	-0.40767617	8.14229885	1.63325563	-0.18097108	7.63462450	2.83707124	2.23292401	7.99925101	-2.05984802	-0.79541236	5.63750440	-2.16764801	7.86891265	-0.07689463	4.55822021	13.37086807
